<?xml version="1.0" encoding="utf-8"?>
<!-- Generator: Adobe Illustrator 24.3.0, SVG Export Plug-In . SVG Version: 6.00 Build 0)  -->
<svg version="1.1" id="Calque_1" xmlns="http://www.w3.org/2000/svg" xmlns:xlink="http://www.w3.org/1999/xlink" x="0px" y="0px"
	 viewBox="0 0 566.93 566.93" style="enable-background:new 0 0 566.93 566.93;" xml:space="preserve">
<style type="text/css">
	.st0{fill:#F2F1F0;}
	.st1{fill:#E6391F;}
</style>
<g>
	<path class="st0" d="M559.78,295.15c0-74.04-28.43-151.34-80.65-203.56S357.49,10.94,283.45,10.94S140,39.36,87.77,91.59
		c-51.2,51.2-79.54,130.4-80.63,202.81h47.17c0,0,3.05-50.76,9-70.6h72.06c3.97,7.27,9.92,13.88,16.53,19.17
		c-1.32,15.86-4.67,51.42-4.67,51.42h48.26c0-12.56,0.71-28.95,2.03-41.51c17.19-3.3,31.07-14.54,39.66-29.09h128.91
		c2.65,19.83,3.97,49.94,3.97,70.43h45.64c0-20.49-0.69-50.6-3.33-70.43h91.23c6.61,19.83,8.74,48.78,8.74,70.6L559.78,295.15z
		 M485.07,176.86h-80.65c-8.59-36.36-21.15-70.73-38.34-103.79C416.32,92.25,458.63,129.93,485.07,176.86z M266.26,58.53
		c5.95-0.66,11.9-0.66,17.19-0.66c6.61,0,13.22,0,19.83,0.66c23.8,37.02,41.65,76.68,52.22,118.33H240.48
		c-3.97-11.24-11.24-21.15-20.49-28.43C231.88,116.71,247.09,86.96,266.26,58.53z M203.46,71.75
		c-11.24,21.15-21.15,43.63-29.09,66.11c-20.49,3.97-37.02,19.17-43.63,38.34H82.48C108.26,129.27,151.23,91.59,203.46,71.75z"/>
</g>
<path class="st1" d="M195.49,286.98"/>
</svg>
