<?xml version="1.0" encoding="utf-8"?>
<!-- Generator: Adobe Illustrator 24.3.0, SVG Export Plug-In . SVG Version: 6.00 Build 0)  -->
<svg version="1.1" id="Calque_1" xmlns="http://www.w3.org/2000/svg" xmlns:xlink="http://www.w3.org/1999/xlink" x="0px" y="0px"
	 viewBox="0 0 566.9 566.9" style="enable-background:new 0 0 566.9 566.9;" xml:space="preserve">
<style type="text/css">
	.st0{fill:#F2F1F0;}
	.st1{fill:#E6391F;}
</style>
<g>
	<path class="st0" d="M559.8,285.1c0-74-28.4-151.3-80.6-203.6S357.5,0.9,283.5,0.9S140,29.4,87.8,81.6
		C36.6,132.8,8.2,212,7.1,284.4h47.2c0,0,3-50.8,9-70.6h72.1c4,7.3,9.9,13.9,16.5,19.2c-1.3,15.9-4.7,51.4-4.7,51.4h48.3
		c0-12.6,0.7-29,2-41.5c17.2-3.3,31.1-14.5,39.7-29.1h128.9c2.6,19.8,4,49.9,4,70.4h45.6c0-20.5-0.7-50.6-3.3-70.4h91.2
		c6.6,19.8,8.7,48.8,8.7,70.6L559.8,285.1z M485.1,166.9h-80.6c-8.6-36.4-21.1-70.7-38.3-103.8C416.3,82.2,458.6,119.9,485.1,166.9z
		 M266.3,48.5c6-0.7,11.9-0.7,17.2-0.7c6.6,0,13.2,0,19.8,0.7c23.8,37,41.6,76.7,52.2,118.3h-115c-4-11.2-11.2-21.1-20.5-28.4
		C231.9,106.7,247.1,77,266.3,48.5z M203.5,61.7c-11.2,21.1-21.1,43.6-29.1,66.1c-20.5,4-37,19.2-43.6,38.3H82.5
		C108.3,119.3,151.2,81.6,203.5,61.7z"/>
</g>
<path class="st1" d="M195.5,277"/>
<g>
	<path class="st0" d="M512.6,280.7c0,21.8-2.1,50.8-8.7,70.6h-91.2c2.6-19.8,3.3-49.9,3.3-70.4h-45.6c0,20.5-1.3,50.6-4,70.4H237.5
		c-8.6-14.5-22.5-25.8-39.7-29.1c-1.3-12.6-2-28.9-2-41.5h-48.3c0,0,3.3,35.6,4.7,51.4c-6.6,5.3-12.6,11.9-16.5,19.2H63.6
		c-6-19.8-9-70.6-9-70.6H7.4c1.1,72.4,29.4,151.6,80.6,202.8c52.2,52.2,121.6,80.6,195.7,80.6s143.5-28.4,195.7-80.6
		S560.1,354,560.1,280L512.6,280.7z M366.4,502.1c17.2-33.1,29.8-67.4,38.3-103.8h80.6C458.9,445.2,416.6,482.9,366.4,502.1z
		 M220.3,426.7c9.2-7.3,16.5-17.2,20.5-28.4h115c-10.6,41.7-28.4,81.3-52.2,118.3c-6.6,0.7-13.2,0.7-19.8,0.7
		c-5.3,0-11.2,0-17.2-0.7C247.4,488.2,232.2,458.4,220.3,426.7z M82.8,398.9H131c6.6,19.2,23.1,34.4,43.6,38.3
		c7.9,22.5,17.8,45,29.1,66.1C151.5,483.5,108.5,445.9,82.8,398.9z"/>
</g>
</svg>
