<?xml version="1.0" encoding="utf-8"?>
<!-- Generator: Adobe Illustrator 24.3.0, SVG Export Plug-In . SVG Version: 6.00 Build 0)  -->
<svg version="1.1" id="Calque_1" xmlns="http://www.w3.org/2000/svg" xmlns:xlink="http://www.w3.org/1999/xlink" x="0px" y="0px"
	 viewBox="0 0 531.19 302.28" style="enable-background:new 0 0 531.19 302.28;" xml:space="preserve">
<style type="text/css">
	.st0{fill:#E6371E;}
</style>
<g>
	<path class="st0" d="M141.28,215.19 M162.44,2.32c-20.49,3.97-37.02,19.17-43.63,38.34H70.55L18.8,38.98
		C11.79,54.8,6.29,71.29,2.36,88.26l49.01,0h72.06c3.97,7.27,9.92,13.88,16.53,19.17c0,0,7.82,11.27,45.61,9.91
		c17.19-3.3,31.07-14.54,39.66-29.09h128.91h46.28h91.23c0,0,9.39-19.4-18.51-46.94h-80.65l-48.92,0H228.54
		c-3.97-11.24-11.24-21.15-20.49-28.43C208.05,12.9,198.08,1.56,162.44,2.32z"/>
</g>
<g>
	<path class="st0" d="M400.27,390.5 M333.5,188.21c-9.25,7.27-16.53,17.19-20.49,28.43H197.98l-48.92,0l-98.45-0.54
		c-3.29,36.15-0.71,47.48-0.71,47.48h91.23h46.28h128.91c8.59,14.54,22.48,25.78,39.66,29.09c37.79,1.36,45.61-9.91,45.61-9.91
		c6.61-5.29,12.56-11.9,16.53-19.17h72.06l0,0c-3.92-16.97,8.35-31.4,12-48.61l-31.17,1.02h-48.26
		c-6.61-19.17-23.14-34.38-43.63-38.34C343.47,176.87,333.5,188.21,333.5,188.21z"/>
</g>
</svg>
