<?xml version="1.0" encoding="utf-8"?>
<!-- Generator: Adobe Illustrator 24.3.0, SVG Export Plug-In . SVG Version: 6.00 Build 0)  -->
<svg version="1.1" id="Calque_1" xmlns="http://www.w3.org/2000/svg" xmlns:xlink="http://www.w3.org/1999/xlink" x="0px" y="0px"
	 viewBox="0 0 566.93 566.93" style="enable-background:new 0 0 566.93 566.93;" xml:space="preserve">
<style type="text/css">
	.st0{fill:#E6371E;}
</style>
<g id="_x39_269873b-566f-aa23-fe77-697bbc54db67" transform="matrix(0.17276311525438642,0,0,0.17276311525438642,35.75002377601375,124.08554457454373)">
	<g>
		<path class="st0" d="M1417.13,2313.61c375.37,0,727.29-144.12,992.06-408.89c264.77-264.77,408.89-616.69,408.89-992.06
			c0-375.37-144.12-727.29-408.89-992.06c-264.77-264.77-616.69-408.89-992.06-408.89S689.84-344.18,425.07-79.4
			C160.3,185.37,16.18,537.28,16.18,912.66s144.12,727.29,408.89,992.06S1041.76,2313.61,1417.13,2313.61z M1497.57,2075.65
			c-26.81,3.35-53.63,3.35-80.44,3.35c-36.87,0-73.73-3.35-110.6-6.7c-120.66-187.69-211.15-388.78-264.77-599.93h593.23
			c20.11,50.27,56.98,97.2,100.55,127.36C1678.55,1767.31,1598.12,1924.83,1497.57,2075.65z M1815.97,2008.62
			c63.68-117.3,113.95-234.61,154.17-358.62c97.19-20.11,174.28-87.14,211.15-177.63h258.07
			C2305.3,1717.03,2080.74,1908.07,1815.97,2008.62z M2580.12,912.66c0,110.6-16.76,217.85-43.57,321.75h-361.97
			c-20.11-43.57-53.63-83.79-93.84-113.95c6.7-73.73,10.05-147.47,10.05-221.2c0-103.9-6.7-207.8-20.11-308.34h462.52
			C2566.72,691.46,2580.12,802.06,2580.12,912.66z M2439.36,352.95h-408.89c-43.57-184.34-107.25-358.62-194.39-526.19
			C2090.8-76.05,2305.3,114.99,2439.36,352.95z M1856.19,899.25c0,56.98-3.35,113.95-6.7,170.93
			c-93.84,20.11-170.93,80.44-207.8,164.23H994.84c-13.41-100.55-23.46-204.45-23.46-304.99c0-63.68,3.35-127.36,10.05-191.04
			c87.14-16.76,157.52-73.73,201.09-147.47h653.55C1849.48,691.46,1856.19,795.36,1856.19,899.25z M1329.99-246.98
			c30.16-3.35,60.33-3.35,87.14-3.35c33.52,0,67.03,0,100.55,3.35c120.66,187.69,211.15,388.78,264.77,599.93h-583.17
			c-20.11-56.98-56.98-107.25-103.9-144.12C1155.71,47.96,1232.8-102.86,1329.99-246.98z M1011.59-179.95
			C954.62-72.7,904.34,41.25,864.13,155.21c-103.9,20.11-187.69,97.2-221.2,194.39H398.26C528.97,111.64,746.82-79.4,1011.59-179.95
			z M254.14,912.66c0-110.6,16.76-221.2,46.92-321.75h365.32c20.11,36.87,50.27,70.38,83.79,97.2
			c-6.7,80.44-13.41,160.87-13.41,241.31c0,103.9,6.7,204.45,20.11,304.99H301.06C267.55,1130.51,254.14,1023.26,254.14,912.66z
			 M797.09,1469.02c43.57,180.98,107.25,358.62,194.39,526.2c-254.72-100.55-465.87-288.23-596.58-526.2H797.09z"/>
	</g>
</g>
</svg>
