<?xml version="1.0" encoding="utf-8"?>
<!-- Generator: Adobe Illustrator 24.3.0, SVG Export Plug-In . SVG Version: 6.00 Build 0)  -->
<svg version="1.1" id="Calque_1" xmlns="http://www.w3.org/2000/svg" xmlns:xlink="http://www.w3.org/1999/xlink" x="0px" y="0px"
	 viewBox="0 0 126.04 30.11" style="enable-background:new 0 0 126.04 30.11;" xml:space="preserve">
<style type="text/css">
	.st0{fill:#E6391F;}
	.st1{fill:#FAD6D7;}
</style>
<g id="b5a93e15-ef7c-9d7a-680b-cdb17474f15f" transform="matrix(2.2,0,0,2.2,90.86749374866484,130.23299922943116)">
	<path class="st0" d="M-25.14-50.61L-25.14-50.61c-0.71,0-1.31-0.24-1.79-0.72l0,0l0,0c-0.48-0.48-0.72-1.08-0.72-1.8l0,0l0,0
		c0-0.71,0.24-1.3,0.72-1.78l0,0l0,0c0.48-0.48,1.08-0.72,1.79-0.72l0,0l0,0c0.71,0,1.33,0.22,1.84,0.67l0,0l-0.67,0.73l0,0
		c-0.34-0.27-0.73-0.4-1.18-0.4l0,0l0,0c-0.45,0-0.81,0.15-1.09,0.43l0,0l0,0c-0.27,0.28-0.41,0.63-0.41,1.07l0,0l0,0
		c0,0.47,0.14,0.84,0.42,1.11l0,0l0,0c0.28,0.27,0.64,0.41,1.09,0.41l0,0l0,0c0.36,0,0.64-0.07,0.83-0.21l0,0v-0.86l-0.67,0v-0.94
		h1.67v2.35l0,0C-23.81-50.83-24.42-50.61-25.14-50.61L-25.14-50.61z M-21.5-53.96v0.37l0,0c0.24-0.24,0.53-0.37,0.88-0.37l0,0l0,0
		c0.11,0,0.21,0.01,0.31,0.02l0,0L-20.47-53l0,0c-0.11-0.1-0.26-0.15-0.47-0.16l0,0l0,0c-0.23,0.02-0.42,0.18-0.57,0.49l0,0v2.06
		h-0.94v-3.25L-21.5-53.96z M-18.19-50.57L-18.19-50.57c-0.49,0-0.89-0.16-1.22-0.49l0,0l0,0c-0.32-0.33-0.48-0.73-0.48-1.21l0,0
		l0,0c0-0.49,0.16-0.89,0.48-1.22l0,0l0,0c0.33-0.33,0.73-0.49,1.22-0.49l0,0l0,0c0.49,0,0.89,0.16,1.22,0.49l0,0l0,0
		c0.33,0.33,0.49,0.73,0.49,1.22l0,0l0,0c0,0.49-0.16,0.89-0.49,1.21l0,0l0,0C-17.3-50.74-17.7-50.57-18.19-50.57L-18.19-50.57z
		 M-18.19-51.38L-18.19-51.38L-18.19-51.38c0.25,0,0.46-0.09,0.62-0.26l0,0l0,0c0.16-0.17,0.24-0.38,0.24-0.64l0,0l0,0
		c0-0.25-0.08-0.47-0.24-0.64l0,0l0,0c-0.16-0.17-0.37-0.26-0.62-0.26l0,0l0,0c-0.25,0-0.46,0.09-0.62,0.26l0,0l0,0
		c-0.16,0.17-0.24,0.38-0.24,0.64l0,0l0,0c0,0.25,0.08,0.47,0.24,0.64l0,0l0,0C-18.65-51.47-18.44-51.38-18.19-51.38z M-13.83-51.79
		L-13.83-51.79v-2.16h0.94v3.35h-0.94v-0.3l0,0c-0.23,0.2-0.49,0.3-0.8,0.3l0,0l0,0c-0.42,0-0.75-0.13-0.97-0.39l0,0l0,0
		c-0.23-0.26-0.34-0.55-0.34-0.89l0,0v-2.08H-15v1.84l0,0c0,0.22,0.06,0.39,0.17,0.52l0,0l0,0c0.11,0.12,0.28,0.19,0.5,0.2l0,0l0,0
		C-14.13-51.41-13.96-51.54-13.83-51.79z M-11.16-49.2l-0.94,0v-4.65l0.94-0.1v0.27l0,0c0.25-0.18,0.5-0.27,0.74-0.27l0,0l0,0
		c0.51,0,0.92,0.17,1.22,0.5l0,0l0,0c0.3,0.33,0.46,0.72,0.46,1.17l0,0l0,0c0,0.45-0.15,0.84-0.46,1.17l0,0l0,0
		c-0.3,0.34-0.71,0.5-1.22,0.5l0,0l0,0c-0.34-0.02-0.58-0.11-0.74-0.27l0,0V-49.2z M-11.16-52.58L-11.16-52.58v0.54l0,0
		c0.05,0.38,0.28,0.6,0.71,0.66l0,0l0,0c0.54-0.04,0.84-0.32,0.91-0.83l0,0l0,0c-0.02-0.63-0.32-0.95-0.91-0.97l0,0l0,0
		C-10.88-53.12-11.11-52.92-11.16-52.58z M-6.56-50.57L-6.56-50.57c-0.49,0-0.89-0.16-1.21-0.49l0,0l0,0
		c-0.33-0.33-0.49-0.73-0.49-1.21l0,0l0,0c0-0.49,0.16-0.89,0.49-1.22l0,0l0,0c0.32-0.33,0.73-0.49,1.21-0.49l0,0l0,0
		c0.49,0,0.89,0.16,1.22,0.49l0,0l0,0c0.33,0.33,0.49,0.73,0.49,1.22l0,0l0,0c0,0.49-0.16,0.89-0.49,1.21l0,0l0,0
		C-5.67-50.74-6.08-50.57-6.56-50.57L-6.56-50.57z M-6.56-51.38L-6.56-51.38L-6.56-51.38c0.25,0,0.46-0.09,0.62-0.26l0,0l0,0
		c0.16-0.17,0.24-0.38,0.24-0.64l0,0l0,0c0-0.25-0.08-0.47-0.24-0.64l0,0l0,0c-0.16-0.17-0.36-0.26-0.62-0.26l0,0l0,0
		c-0.25,0-0.46,0.09-0.62,0.26l0,0l0,0c-0.16,0.17-0.24,0.38-0.24,0.64l0,0l0,0c0,0.25,0.08,0.47,0.24,0.64l0,0l0,0
		C-7.03-51.47-6.82-51.38-6.56-51.38z M-3.29-52.75L-3.29-52.75v2.14h-0.94v-3.25l0.94-0.1v0.3l0,0c0.21-0.2,0.48-0.29,0.8-0.29l0,0
		l0,0c0.42,0,0.74,0.13,0.97,0.38l0,0l0,0c0.24-0.25,0.61-0.38,1.1-0.38l0,0l0,0c0.42,0,0.75,0.13,0.97,0.38l0,0l0,0
		c0.22,0.26,0.33,0.55,0.33,0.89l0,0v2.07h-0.94v-1.84l0,0c0-0.22-0.05-0.39-0.15-0.52l0,0l0,0c-0.1-0.12-0.26-0.18-0.49-0.19l0,0
		l0,0c-0.19,0.01-0.35,0.14-0.48,0.37l0,0l0,0c-0.01,0.07-0.02,0.14-0.02,0.21l0,0v1.97h-0.94v-1.84l0,0c0-0.22-0.05-0.39-0.15-0.52
		l0,0l0,0c-0.1-0.12-0.26-0.18-0.49-0.19l0,0l0,0C-2.97-53.14-3.15-53.01-3.29-52.75z M2.15-52.98l-0.37-0.57l0,0
		c0.42-0.27,0.92-0.4,1.47-0.4l0,0l0,0c0.4,0,0.72,0.11,0.95,0.33l0,0l0,0c0.24,0.23,0.35,0.56,0.35,1l0,0v2.01H3.62v-0.26l0,0
		c-0.27,0.18-0.52,0.26-0.74,0.26l0,0l0,0c-0.44,0-0.78-0.09-1-0.28l0,0l0,0c-0.22-0.19-0.33-0.45-0.33-0.78l0,0l0,0
		c0-0.31,0.11-0.59,0.32-0.84l0,0l0,0c0.21-0.24,0.55-0.37,1.02-0.37l0,0l0,0c0.22,0,0.47,0.07,0.74,0.2l0,0v-0.1l0,0
		c-0.01-0.24-0.19-0.38-0.54-0.4l0,0l0,0C2.68-53.18,2.37-53.12,2.15-52.98L2.15-52.98z M3.62-51.61L3.62-51.61v-0.38l0,0
		c-0.09-0.17-0.3-0.26-0.64-0.26l0,0l0,0c-0.4,0.05-0.61,0.2-0.64,0.47l0,0l0,0c0.02,0.26,0.24,0.41,0.64,0.43l0,0l0,0
		C3.32-51.35,3.53-51.43,3.62-51.61z M6.33-52.73L6.33-52.73v2.13H5.39v-3.25l0.94-0.1v0.3l0,0c0.23-0.2,0.49-0.3,0.8-0.3l0,0l0,0
		c0.42,0,0.75,0.13,0.97,0.38l0,0l0,0c0.22,0.26,0.33,0.55,0.33,0.89l0,0v2.07H7.5v-1.84l0,0c0-0.22-0.06-0.39-0.17-0.52l0,0l0,0
		c-0.11-0.12-0.28-0.18-0.51-0.19l0,0l0,0C6.64-53.14,6.47-53,6.33-52.73z M10.16-50.61H9.23v-3.35h0.94V-50.61z M9.19-54.75
		L9.19-54.75L9.19-54.75c0,0.13,0.04,0.24,0.13,0.33l0,0l0,0c0.09,0.09,0.22,0.13,0.37,0.13l0,0l0,0c0.15,0,0.28-0.04,0.37-0.13l0,0
		l0,0c0.09-0.09,0.13-0.2,0.13-0.33l0,0l0,0c0-0.13-0.04-0.25-0.13-0.34l0,0l0,0c-0.09-0.09-0.22-0.14-0.38-0.14l0,0l0,0
		c-0.15,0-0.27,0.05-0.36,0.14l0,0l0,0C9.24-55,9.19-54.89,9.19-54.75z M11.41-52.98l-0.37-0.57l0,0c0.42-0.27,0.92-0.4,1.47-0.4
		l0,0l0,0c0.4,0,0.72,0.11,0.95,0.33l0,0l0,0c0.23,0.23,0.35,0.56,0.35,1l0,0v2.01h-0.94v-0.26l0,0c-0.27,0.18-0.52,0.26-0.73,0.26
		l0,0l0,0c-0.45,0-0.78-0.09-1-0.28l0,0l0,0c-0.23-0.19-0.34-0.45-0.34-0.78l0,0l0,0c0-0.31,0.11-0.59,0.32-0.84l0,0l0,0
		c0.21-0.24,0.55-0.37,1.02-0.37l0,0l0,0c0.22,0,0.46,0.07,0.73,0.2l0,0v-0.1l0,0c0-0.24-0.18-0.38-0.53-0.4l0,0l0,0
		C11.95-53.18,11.64-53.12,11.41-52.98L11.41-52.98z M12.89-51.61L12.89-51.61v-0.38l0,0c-0.09-0.17-0.3-0.26-0.64-0.26l0,0l0,0
		c-0.4,0.05-0.61,0.2-0.64,0.47l0,0l0,0c0.02,0.26,0.24,0.41,0.64,0.43l0,0l0,0C12.59-51.35,12.8-51.43,12.89-51.61z"/>
</g>
<g id="_x39_269873b-566f-aa23-fe77-697bbc54db67" transform="matrix(0.17276311525438642,0,0,0.17276311525438642,35.75002377601375,124.08554457454373)">
	<g>
		<path class="st1" d="M-117.63-570.43c16.45,0,31.88-6.32,43.48-17.92c11.61-11.61,17.92-27.03,17.92-43.48
			s-6.32-31.88-17.92-43.48s-27.03-17.92-43.48-17.92s-31.88,6.32-43.48,17.92c-11.61,11.61-17.92,27.03-17.92,43.48
			s6.32,31.88,17.92,43.48C-149.51-576.74-134.08-570.43-117.63-570.43z M-114.1-580.85c-1.18,0.15-2.35,0.15-3.53,0.15
			c-1.62,0-3.23-0.15-4.85-0.29c-5.29-8.23-9.25-17.04-11.61-26.3h26c0.88,2.2,2.5,4.26,4.41,5.58
			C-106.17-594.37-109.7-587.47-114.1-580.85z M-100.15-583.79c2.79-5.14,4.99-10.28,6.76-15.72c4.26-0.88,7.64-3.82,9.25-7.79
			h11.31C-78.7-596.57-88.54-588.2-100.15-583.79z M-66.66-631.83c0,4.85-0.73,9.55-1.91,14.1h-15.87
			c-0.88-1.91-2.35-3.67-4.11-4.99c0.29-3.23,0.44-6.46,0.44-9.7c0-4.55-0.29-9.11-0.88-13.51h20.27
			C-67.24-641.52-66.66-636.68-66.66-631.83z M-72.82-656.36h-17.92c-1.91-8.08-4.7-15.72-8.52-23.06
			C-88.1-675.16-78.7-666.79-72.82-656.36z M-98.39-632.42c0,2.5-0.15,4.99-0.29,7.49c-4.11,0.88-7.49,3.53-9.11,7.2h-28.35
			c-0.59-4.41-1.03-8.96-1.03-13.37c0-2.79,0.15-5.58,0.44-8.37c3.82-0.73,6.9-3.23,8.81-6.46h28.65
			C-98.68-641.52-98.39-636.97-98.39-632.42z M-121.45-682.66c1.32-0.15,2.64-0.15,3.82-0.15c1.47,0,2.94,0,4.41,0.15
			c5.29,8.23,9.25,17.04,11.61,26.3h-25.56c-0.88-2.5-2.5-4.7-4.55-6.32C-129.09-669.73-125.71-676.34-121.45-682.66z
			 M-135.4-679.72c-2.5,4.7-4.7,9.7-6.46,14.69c-4.55,0.88-8.23,4.26-9.7,8.52h-10.72C-156.56-666.94-147.01-675.31-135.4-679.72z
			 M-168.6-631.83c0-4.85,0.73-9.7,2.06-14.1h16.01c0.88,1.62,2.2,3.08,3.67,4.26c-0.29,3.53-0.59,7.05-0.59,10.58
			c0,4.55,0.29,8.96,0.88,13.37h-19.98C-168.02-622.28-168.6-626.98-168.6-631.83z M-144.81-607.44c1.91,7.93,4.7,15.72,8.52,23.06
			c-11.16-4.41-20.42-12.63-26.15-23.06H-144.81z"/>
	</g>
</g>
</svg>
